<svg version="1.1" id="Layer_1" xmlns="http://www.w3.org/2000/svg" xmlns:xlink="http://www.w3.org/1999/xlink" x="0px" y="0px"
	 width="100%" viewBox="0 0 1024 1024" enable-background="new 0 0 1024 1024" xml:space="preserve">
<path fill="#201F2C" opacity="1.000000" stroke="none" 
	d="
M470.000000,1025.000000 
	C313.333344,1025.000000 157.166672,1025.000000 1.000000,1025.000000 
	C1.000000,683.666687 1.000000,342.333344 1.000000,1.000000 
	C342.333344,1.000000 683.666687,1.000000 1025.000000,1.000000 
	C1025.000000,342.333344 1025.000000,683.666687 1025.000000,1025.000000 
	C840.166687,1025.000000 655.333313,1025.000000 470.000000,1025.000000 
M629.661621,481.547638 
	C627.086792,478.694427 624.512024,475.841217 622.258240,472.496155 
	C623.922424,471.659882 625.758240,471.051788 627.222473,469.949860 
	C635.825073,463.475616 644.514526,457.096008 652.805054,450.237640 
	C656.376709,447.282959 655.853699,443.086090 652.390381,439.801086 
	C650.467285,437.976959 648.362244,436.344696 646.369507,433.824646 
	C646.301453,409.058777 646.278748,384.292633 646.106079,359.527496 
	C646.085266,356.545044 645.252991,353.568298 644.796875,350.588898 
	C642.086609,351.967926 639.415405,353.432312 636.652222,354.695557 
	C634.847900,355.520416 632.363281,357.142029 631.129944,356.522461 
	C626.585327,354.239471 622.435425,351.170959 618.771606,347.921326 
	C624.674988,344.211456 630.565002,340.480072 636.484985,336.796967 
	C644.496704,331.812561 645.068542,325.278656 637.271240,319.875031 
	C622.924133,309.932465 608.255188,300.453461 593.697327,290.816193 
	C589.691101,288.164093 585.575439,288.147583 581.516418,290.749054 
	C578.018433,292.990936 574.481934,295.183960 571.091797,297.581421 
	C519.197937,334.280060 467.351013,371.045135 415.430756,407.706360 
	C401.434357,417.589264 387.146271,427.059357 373.162354,436.959442 
	C367.415680,441.027863 367.491394,447.534058 372.958771,451.989990 
	C375.137604,453.765808 377.576233,455.231689 379.944214,456.765045 
	C391.242493,464.081146 402.646912,471.237640 413.836212,478.716309 
	C422.073395,484.221802 426.324829,484.558807 434.230438,478.883606 
	C472.612610,451.330048 510.902893,423.648285 549.325317,396.151062 
	C567.032837,383.478607 584.968262,371.124664 602.977356,359.593933 
	C603.133423,374.774689 603.289490,389.955414 602.628357,404.745697 
	C598.472351,401.757751 594.549377,398.332397 590.071960,395.947876 
	C587.437195,394.544739 583.922241,394.794373 580.036743,394.362854 
	C568.312500,402.553955 556.588318,410.745056 544.210938,419.123810 
	C513.525818,441.007843 482.777618,462.804260 452.199097,484.836273 
	C444.341858,490.497498 444.832520,497.757233 452.818634,503.526001 
	C461.281372,509.639069 469.743713,515.752686 477.633392,522.299561 
	C474.095184,524.884888 470.556976,527.470215 466.343719,529.979370 
	C466.118652,529.954529 465.893555,529.929749 465.429504,529.330811 
	C447.846344,516.716980 430.259888,504.107727 412.681274,491.487549 
	C402.542419,484.208588 392.416229,476.911926 381.757874,469.205170 
	C378.299652,466.384369 374.841461,463.563568 370.301422,459.860321 
	C369.847504,463.612213 369.390350,465.686188 369.378265,467.762726 
	C369.289154,483.057678 369.465393,498.356415 369.176910,513.646790 
	C369.055573,520.076355 371.870605,524.341858 376.963898,527.630432 
	C381.010712,530.243286 385.083893,532.825806 389.013031,535.608643 
	C400.806152,543.961243 412.534515,552.405334 424.703705,561.310547 
	C435.360840,568.908936 446.049927,576.463013 456.661469,584.124573 
	C461.917206,587.919312 466.901978,587.921448 472.192932,584.087830 
	C482.663879,576.501038 493.295715,569.136719 503.804504,561.601501 
	C505.111542,560.664307 506.075104,559.247986 507.905029,558.117126 
	C511.775421,555.207275 515.645813,552.297485 520.152832,549.144531 
	C532.492004,540.185486 544.840393,531.239014 557.141052,522.227356 
	C557.707947,521.812073 557.846680,520.812439 558.907593,520.229919 
	C562.899597,517.695862 566.891602,515.161804 571.400696,513.134521 
	C576.897949,516.794800 582.395203,520.455139 588.265015,524.678650 
	C593.245117,527.961243 598.169617,531.332520 603.223877,534.496704 
	C606.884216,536.788269 611.024902,537.257874 614.559387,534.710205 
	C626.799316,525.888000 638.837158,516.785400 651.591064,507.554810 
	C652.762390,503.847870 654.729248,500.185760 654.941223,496.424774 
	C655.397400,488.332581 654.972290,480.189117 654.853455,472.067444 
	C654.830566,470.507629 654.558411,468.951447 654.302551,466.415894 
	C650.348999,468.950745 647.208740,470.964142 643.383667,473.125732 
	C638.910645,476.135376 634.437622,479.145020 629.661621,481.547638 
M369.747375,360.550720 
	C369.727844,377.733917 369.708313,394.917084 369.425751,412.888885 
	C369.425751,415.085754 369.425751,417.282654 369.425751,419.931122 
	C370.815918,419.311920 371.466064,419.140198 371.980042,418.776245 
	C385.354279,409.305145 398.714355,399.814087 412.706848,390.023102 
	C419.846405,384.419067 426.985992,378.815063 434.553894,373.119293 
	C434.553894,373.119293 434.961578,372.959167 435.557922,373.052704 
	C436.017883,372.690826 436.477844,372.328949 437.411469,371.844086 
	C437.722198,371.688049 437.926208,371.443115 438.639587,370.929840 
	C438.943787,370.636963 439.248016,370.344086 440.184875,369.932312 
	C448.454620,364.161743 456.770844,358.456238 464.974457,352.593140 
	C469.080658,349.658447 472.981537,346.436401 477.696960,343.188934 
	C488.467957,348.479095 497.005371,345.403687 499.942383,334.851593 
	C500.707306,332.103363 500.204803,329.002411 500.964264,326.039215 
	C521.187195,311.455017 541.410156,296.870850 562.121155,281.934692 
	C558.296021,279.209412 555.371399,277.031891 552.353516,274.992401 
	C541.348816,267.555298 530.312012,260.165680 519.289429,252.755005 
	C515.595520,250.271576 512.007874,250.852875 508.632385,253.310471 
	C505.689606,255.453018 502.987610,257.929993 500.017731,260.030884 
	C486.997833,269.241211 473.919281,278.368561 460.193817,287.787842 
	C446.885101,297.107117 433.562378,306.406616 420.287903,315.774384 
	C418.860443,316.781738 417.713226,318.186157 415.802673,319.606995 
	C404.001953,321.036438 400.853943,323.703552 397.123291,334.981659 
	C390.641022,339.475189 383.827148,343.573120 377.808014,348.619080 
	C374.502533,351.390137 372.536316,355.758667 369.800629,359.387421 
	C369.800629,359.387421 369.919525,359.701630 369.747375,360.550720 
M247.165283,666.505615 
	C238.256973,666.505615 229.348663,666.505615 220.358246,666.505615 
	C220.358246,686.319458 220.358246,705.392029 220.358246,725.485413 
	C232.882996,724.961365 245.309937,725.642029 257.297058,723.661194 
	C275.704865,720.619263 285.157623,699.363281 276.447144,682.776428 
	C270.486664,671.426331 260.365448,667.026794 247.165283,666.505615 
M664.296265,725.010864 
	C667.183289,725.379089 667.985107,724.095581 667.875305,721.272095 
	C667.635986,715.115723 667.533875,708.936890 667.778625,702.783325 
	C668.063599,695.621948 672.050598,691.513550 677.946838,691.706177 
	C683.088989,691.874146 685.754944,695.555725 685.833984,702.880310 
	C685.912598,710.167358 685.851196,717.455994 685.851196,724.754761 
	C690.069153,724.754761 693.676086,724.754761 697.961487,724.754761 
	C697.961487,716.869446 697.668274,709.235962 698.056458,701.637268 
	C698.354797,695.797791 703.414856,691.582703 708.696106,691.916565 
	C713.126526,692.196655 715.069885,695.206543 715.087891,701.914856 
	C715.108276,709.518738 715.092590,717.122742 715.092590,724.648560 
	C719.369080,724.648560 723.113037,724.648560 727.271362,724.648560 
	C727.271362,714.878418 727.466614,705.393982 727.220764,695.921021 
	C726.930664,684.744751 718.020020,677.931274 707.113464,680.721069 
	C702.891541,681.801086 699.000549,684.174866 694.800476,686.029114 
	C684.440979,677.914368 677.936768,677.750366 667.168335,685.738525 
	C667.052185,684.043457 666.947754,682.519836 666.837524,680.911743 
	C662.869263,680.911743 659.301331,680.911743 655.656982,680.911743 
	C655.656982,695.740051 655.656982,710.171997 655.656982,725.011597 
	C658.418884,725.011597 660.894409,725.011597 664.296265,725.010864 
M426.158295,718.405457 
	C427.205658,720.830811 428.253021,723.256165 429.259857,725.587646 
	C433.754303,725.587646 437.959351,725.587646 442.962799,725.587646 
	C433.894928,705.221985 425.081177,685.427002 416.490479,666.132996 
	C413.439453,666.132996 411.227417,666.441772 409.136871,666.069092 
	C404.701660,665.278564 402.758850,667.276489 401.121399,671.230347 
	C395.274231,685.349182 389.028534,699.302795 382.947784,713.325134 
	C381.260468,717.216125 379.621826,721.128174 377.903809,725.164429 
	C389.230408,727.214233 389.745300,726.946533 393.818970,717.390686 
	C393.949646,717.084229 394.129822,716.785950 394.192444,716.465393 
	C394.776459,713.476257 396.575226,712.673645 399.539703,712.795105 
	C405.863098,713.054382 412.218140,713.205872 418.529449,712.852417 
	C422.508118,712.629578 424.862030,713.874329 426.158295,718.405457 
M546.097778,703.390442 
	C546.635437,721.256958 564.279785,733.081665 580.559998,720.703491 
	C582.014038,725.410217 583.996948,726.012939 592.903015,724.438477 
	C592.903015,704.536987 592.903015,684.630920 592.903015,664.678040 
	C588.840149,664.678040 585.104553,664.678040 580.750854,664.678040 
	C580.750854,671.554382 580.750854,678.081177 580.750854,684.948914 
	C563.883545,674.756714 547.323914,683.483582 546.097778,703.390442 
M447.240479,705.498657 
	C447.240479,712.083679 447.240479,718.668701 447.240479,725.351196 
	C452.040070,725.351196 455.771423,725.351196 459.968140,725.351196 
	C458.710632,717.438904 459.580017,710.711731 468.137939,707.516479 
	C471.148895,712.415588 474.119080,717.398071 477.269836,722.263550 
	C478.003632,723.396729 479.305237,724.853149 480.424988,724.925049 
	C485.080688,725.224182 489.766754,725.050720 494.328125,725.050720 
	C488.930695,716.785522 484.015686,708.900513 478.693512,701.300598 
	C476.793732,698.587891 477.235962,697.134705 479.411652,695.062744 
	C483.995972,690.696960 488.331940,686.070435 493.103058,681.211548 
	C477.940033,680.462158 477.949738,680.471375 468.070068,690.832458 
	C465.667297,693.352295 463.177917,695.789490 459.929810,699.071594 
	C459.929810,687.204102 459.929810,676.742981 459.929810,665.892822 
	C455.630157,665.892822 451.563202,665.892822 447.235229,665.892822 
	C447.235229,678.894470 447.235229,691.696777 447.240479,705.498657 
M779.997925,688.622559 
	C780.953918,686.231934 781.909851,683.841309 782.883850,681.405518 
	C772.640625,679.181763 771.676697,679.655212 768.043579,688.523438 
	C765.132690,695.628723 762.242371,702.742371 758.976440,710.751038 
	C754.695007,701.287415 750.896240,692.692566 746.879150,684.200989 
	C746.189880,682.743958 744.670776,680.828491 743.361328,680.682312 
	C740.030090,680.310669 736.600342,680.821228 732.812561,680.997070 
	C738.679382,693.914795 744.247559,706.122864 749.765503,718.353638 
	C751.607178,722.435547 754.155823,726.739746 749.650574,730.604492 
	C745.451294,734.206726 741.045776,733.151062 736.822571,730.300293 
	C736.602478,730.151672 736.194641,730.281128 735.724243,730.281128 
	C735.379822,730.960754 735.107483,731.748779 734.635803,732.390137 
	C729.995605,738.700195 731.102905,740.225098 738.636169,742.555969 
	C748.482483,745.602478 756.563599,742.300720 761.013245,732.744141 
	C767.661316,718.466248 773.547729,703.833801 779.997925,688.622559 
M319.834961,723.460815 
	C322.209229,721.829163 326.499481,721.394592 325.089386,717.164673 
	C324.427338,715.178772 322.293884,713.130310 320.329987,712.329041 
	C319.055389,711.808960 316.855438,713.428406 315.117218,714.195862 
	C308.549072,717.095825 301.273773,714.082153 298.212891,706.563721 
	C309.513428,706.563721 320.542267,706.563721 332.266571,706.563721 
	C331.289307,702.065186 330.888336,698.239563 329.613373,694.731567 
	C326.148285,685.197815 316.389771,679.236938 306.422943,680.145264 
	C295.758728,681.117126 287.289246,688.429077 285.343903,698.343384 
	C283.396790,708.266663 287.724731,717.772522 296.512421,722.318176 
	C303.791626,726.083557 311.382935,726.774963 319.834961,723.460815 
M645.407654,692.229370 
	C639.660156,682.480530 629.550049,678.317749 618.489014,681.145752 
	C608.622009,683.668518 601.679077,692.478149 601.181641,703.106567 
	C600.764954,712.009094 607.692627,720.998535 617.384460,724.131409 
	C627.449768,727.385010 638.693481,724.821960 643.132080,718.391418 
	C640.967468,715.906860 638.827209,713.450256 636.713745,711.024414 
	C628.514648,718.240845 618.489563,716.338867 613.852356,706.621826 
	C625.306519,706.621826 636.486328,706.621826 648.763184,706.621826 
	C647.655640,701.507568 646.722412,697.197754 645.407654,692.229370 
M497.186066,717.059998 
	C503.248688,727.131775 513.371704,728.847778 524.068726,721.616882 
	C525.771057,725.400391 529.782227,726.234863 537.100098,724.251099 
	C537.100098,714.641785 537.232300,704.985901 537.056335,695.335510 
	C536.926392,688.211487 532.819031,683.179749 525.951233,681.096375 
	C518.724792,678.904236 511.793671,680.124573 505.021454,682.985840 
	C497.463715,686.179077 497.158386,687.351868 502.212128,693.864990 
	C502.482819,694.213867 503.052643,694.330627 503.437286,694.531494 
	C516.548401,687.706543 524.488464,688.928040 524.678528,698.236572 
	C519.743774,698.483459 514.773254,698.581116 509.831818,699.011597 
	C500.301086,699.841736 494.867554,707.241028 497.186066,717.059998 
M355.004150,702.347534 
	C352.473419,696.028015 349.989807,689.688843 347.366272,683.408081 
	C346.921356,682.342896 345.929932,680.787048 345.097504,680.725647 
	C341.219971,680.439636 337.309570,680.598877 332.840332,680.598877 
	C338.187164,693.262451 343.200714,705.147339 348.223114,717.028503 
	C352.013306,725.994568 352.131927,726.121643 361.596954,725.145569 
	C362.821747,725.019287 364.558319,724.105774 365.009125,723.091064 
	C371.172699,709.217834 377.151611,695.262634 383.222198,681.220581 
	C372.871979,678.819092 371.805420,679.328064 368.408630,687.842712 
	C367.301453,690.618103 366.253662,693.417969 365.101288,696.174255 
	C363.082977,701.001465 361.004913,705.803711 358.512451,711.646484 
	C357.105865,707.976807 356.169098,705.532959 355.004150,702.347534 
z"/>
<path fill="#FDFDFE" opacity="1.000000" stroke="none" 
	d="
M602.800354,358.626343 
	C584.968262,371.124664 567.032837,383.478607 549.325317,396.151062 
	C510.902893,423.648285 472.612610,451.330048 434.230438,478.883606 
	C426.324829,484.558807 422.073395,484.221802 413.836212,478.716309 
	C402.646912,471.237640 391.242493,464.081146 379.944214,456.765045 
	C377.576233,455.231689 375.137604,453.765808 372.958771,451.989990 
	C367.491394,447.534058 367.415680,441.027863 373.162354,436.959442 
	C387.146271,427.059357 401.434357,417.589264 415.430756,407.706360 
	C467.351013,371.045135 519.197937,334.280060 571.091797,297.581421 
	C574.481934,295.183960 578.018433,292.990936 581.516418,290.749054 
	C585.575439,288.147583 589.691101,288.164093 593.697327,290.816193 
	C608.255188,300.453461 622.924133,309.932465 637.271240,319.875031 
	C645.068542,325.278656 644.496704,331.812561 636.484985,336.796967 
	C630.565002,340.480072 624.674988,344.211456 618.215210,348.227234 
	C612.705994,351.897583 607.753174,355.261963 602.800354,358.626343 
z"/>
<path fill="#A59FF1" opacity="1.000000" stroke="none" 
	d="
M478.206238,521.866028 
	C469.743713,515.752686 461.281372,509.639069 452.818634,503.526001 
	C444.832520,497.757233 444.341858,490.497498 452.199097,484.836273 
	C482.777618,462.804260 513.525818,441.007843 544.768677,419.237976 
	C544.313416,420.621735 543.460938,422.074310 542.258728,423.128113 
	C537.847107,426.995422 533.319336,430.730286 528.584351,434.726807 
	C533.540161,439.277435 535.835693,443.835175 534.112000,449.886414 
	C533.654602,451.491974 534.619385,453.451904 534.628174,455.250610 
	C534.652649,460.232330 534.863892,465.252960 534.321594,470.183441 
	C533.968262,473.396027 532.337524,476.452576 531.442078,479.625061 
	C530.356506,483.470978 529.544434,487.395325 528.415344,491.227264 
	C527.774963,493.400787 526.818665,495.494965 525.863159,497.559418 
	C522.620483,504.565338 518.776855,511.350861 516.202820,518.590332 
	C514.132385,524.413452 506.074707,527.712769 510.262695,536.765503 
	C506.523468,534.805481 504.193298,533.584045 501.525513,532.185669 
	C501.676025,534.229309 501.782867,535.679688 501.551880,537.055542 
	C493.544769,531.942688 485.875519,526.904358 478.206238,521.866028 
z"/>
<path fill="#7AA2F8" opacity="1.000000" stroke="none" 
	d="
M570.883545,512.627747 
	C566.891602,515.161804 562.899597,517.695862 558.215149,520.000671 
	C556.911377,518.327942 555.658386,516.810242 555.815002,515.455505 
	C556.207153,512.063049 557.583252,508.781250 557.945679,505.388977 
	C558.891541,496.537140 558.399353,487.363892 560.596436,478.865784 
	C562.406860,471.863220 560.460144,467.817230 555.488525,463.990387 
	C551.250854,460.728516 551.429321,457.016541 553.637207,452.520264 
	C555.716064,448.286652 558.278015,443.819427 555.387817,438.850647 
	C553.497803,435.601288 553.980835,432.729370 555.864380,429.506897 
	C559.140503,423.901917 558.091675,419.327148 552.722046,416.302582 
	C556.471497,413.406891 559.981384,410.732788 563.451538,408.008026 
	C569.248779,403.455963 575.020630,398.871490 580.803162,394.300659 
	C583.922241,394.794373 587.437195,394.544739 590.071960,395.947876 
	C594.549377,398.332397 598.472351,401.757751 603.136292,405.048889 
	C606.707092,407.579651 609.757385,409.824829 612.835754,412.030884 
	C617.907410,415.665436 622.997131,419.274689 627.689453,422.920044 
	C626.016602,422.617035 624.745605,422.226562 623.447754,421.974152 
	C621.334900,421.563232 619.505798,418.136719 617.005920,421.501373 
	C615.491882,423.539215 612.880066,425.073029 612.114868,427.298645 
	C609.575623,434.683624 606.752625,441.575378 601.464600,447.740326 
	C596.798767,453.179932 593.879639,460.131409 590.286865,466.470673 
	C589.012817,468.718689 587.499634,471.026093 587.014771,473.487457 
	C585.868530,479.306641 585.013184,485.215149 584.576599,491.127197 
	C584.385864,493.709839 585.508850,496.389526 585.862061,499.313354 
	C584.684937,500.459045 583.668457,501.302399 582.679199,502.176544 
	C578.742737,505.655060 574.814758,509.143219 570.883545,512.627747 
z"/>
<path fill="#53EC83" opacity="1.000000" stroke="none" 
	d="
M460.862000,287.525970 
	C473.919281,278.368561 486.997833,269.241211 500.017731,260.030884 
	C502.987610,257.929993 505.689606,255.453018 508.632385,253.310471 
	C512.007874,250.852875 515.595520,250.271576 519.289429,252.755005 
	C530.312012,260.165680 541.348816,267.555298 552.353516,274.992401 
	C555.371399,277.031891 558.296021,279.209412 562.121155,281.934692 
	C541.410156,296.870850 521.187195,311.455017 500.320557,325.872314 
	C496.796112,320.704895 492.900238,316.999756 486.913940,315.463104 
	C484.305847,313.640045 480.405914,312.682526 479.620331,310.568054 
	C477.676453,305.335571 473.746155,302.485107 469.405670,300.430878 
	C463.660583,297.711853 462.177704,292.828674 460.862000,287.525970 
z"/>
<path fill="#8998F7" opacity="1.000000" stroke="none" 
	d="
M580.419922,394.331757 
	C575.020630,398.871490 569.248779,403.455963 563.451538,408.008026 
	C559.981384,410.732788 556.471497,413.406891 552.722046,416.302582 
	C558.091675,419.327148 559.140503,423.901917 555.864380,429.506897 
	C553.980835,432.729370 553.497803,435.601288 555.387817,438.850647 
	C558.278015,443.819427 555.716064,448.286652 553.637207,452.520264 
	C551.429321,457.016541 551.250854,460.728516 555.488525,463.990387 
	C560.460144,467.817230 562.406860,471.863220 560.596436,478.865784 
	C558.399353,487.363892 558.891541,496.537140 557.945679,505.388977 
	C557.583252,508.781250 556.207153,512.063049 555.815002,515.455505 
	C555.658386,516.810242 556.911377,518.327942 557.853760,519.928223 
	C557.846680,520.812439 557.707947,521.812073 557.141052,522.227356 
	C544.840393,531.239014 532.492004,540.185486 519.639893,548.963623 
	C518.083008,547.891907 517.039001,547.001160 515.866943,545.872803 
	C515.436584,545.450439 515.134155,545.265564 514.893677,545.081421 
	C514.955627,545.082153 514.941284,545.205139 514.769226,544.918884 
	C513.977905,544.442200 513.358643,544.251709 512.536621,544.019165 
	C512.333801,543.977051 512.059753,543.666504 512.023987,543.313354 
	C510.652832,542.307739 509.317413,541.655212 507.991272,540.999207 
	C508.000519,540.995728 508.000214,541.015137 507.936157,540.670288 
	C506.883545,539.905701 505.894928,539.485962 504.945709,539.050293 
	C504.985077,539.034363 504.944550,539.109070 504.899109,538.755615 
	C503.868591,537.958984 502.883545,537.515808 501.913025,537.088989 
	C501.927612,537.105408 501.889679,537.130127 501.889679,537.130127 
	C501.782867,535.679688 501.676025,534.229309 501.525513,532.185669 
	C504.193298,533.584045 506.523468,534.805481 510.262695,536.765503 
	C506.074707,527.712769 514.132385,524.413452 516.202820,518.590332 
	C518.776855,511.350861 522.620483,504.565338 525.863159,497.559418 
	C526.818665,495.494965 527.774963,493.400787 528.415344,491.227264 
	C529.544434,487.395325 530.356506,483.470978 531.442078,479.625061 
	C532.337524,476.452576 533.968262,473.396027 534.321594,470.183441 
	C534.863892,465.252960 534.652649,460.232330 534.628174,455.250610 
	C534.619385,453.451904 533.654602,451.491974 534.112000,449.886414 
	C535.835693,443.835175 533.540161,439.277435 528.584351,434.726807 
	C533.319336,430.730286 537.847107,426.995422 542.258728,423.128113 
	C543.460938,422.074310 544.313416,420.621735 545.095215,419.144165 
	C556.588318,410.745056 568.312500,402.553955 580.419922,394.331757 
z"/>
<path fill="#4FDDAD" opacity="1.000000" stroke="none" 
	d="
M460.527893,287.656921 
	C462.177704,292.828674 463.660583,297.711853 469.405670,300.430878 
	C473.746155,302.485107 477.676453,305.335571 479.620331,310.568054 
	C480.405914,312.682526 484.305847,313.640045 486.501282,315.531433 
	C477.348846,314.940186 470.676666,325.575317 472.545074,333.641510 
	C473.331268,337.035736 475.457916,340.119476 476.975250,343.344330 
	C472.981537,346.436401 469.080658,349.658447 464.974457,352.593140 
	C456.770844,358.456238 448.454620,364.161743 439.564270,370.093750 
	C438.636902,370.539886 438.330200,370.824585 438.023468,371.109314 
	C437.926208,371.443115 437.722198,371.688049 436.890869,371.949524 
	C435.900726,372.356354 435.431152,372.657776 434.961578,372.959167 
	C434.961578,372.959167 434.553894,373.119293 434.322571,372.786865 
	C434.707031,369.402679 436.845001,365.426086 435.656769,363.470490 
	C431.906342,357.298096 427.671295,350.956207 419.715393,349.507660 
	C420.907776,348.567749 421.802673,347.813416 422.778625,347.185028 
	C429.392578,342.926727 429.593353,332.653351 424.734100,327.733978 
	C421.980286,324.946075 419.202820,322.181519 416.436035,319.406433 
	C417.713226,318.186157 418.860443,316.781738 420.287903,315.774384 
	C433.562378,306.406616 446.885101,297.107117 460.527893,287.656921 
z"/>
<path fill="#4DD4C6" opacity="1.000000" stroke="none" 
	d="
M419.455353,349.751495 
	C427.671295,350.956207 431.906342,357.298096 435.656769,363.470490 
	C436.845001,365.426086 434.707031,369.402679 434.108398,372.832703 
	C426.985992,378.815063 419.846405,384.419067 412.088135,390.002411 
	C409.340210,389.425690 408.137207,386.155884 404.978180,388.505005 
	C395.268433,395.725372 385.382568,402.712097 375.467010,409.649384 
	C373.790161,410.822601 371.627167,411.300934 369.688782,412.100281 
	C369.708313,394.917084 369.727844,377.733917 369.866089,360.058228 
	C369.984772,359.565735 369.966217,359.406921 369.966217,359.406921 
	C372.536316,355.758667 374.502533,351.390137 377.808014,348.619080 
	C383.827148,343.573120 390.641022,339.475189 397.720795,335.228088 
	C401.351166,348.646851 407.605316,352.871216 419.455353,349.751495 
z"/>
<path fill="#F48434" opacity="1.000000" stroke="none" 
	d="
M628.079285,422.894562 
	C622.997131,419.274689 617.907410,415.665436 612.835754,412.030884 
	C609.757385,409.824829 606.707092,407.579651 603.544922,405.244110 
	C603.289490,389.955414 603.133423,374.774689 602.888855,359.110138 
	C607.753174,355.261963 612.705994,351.897583 617.897949,348.465546 
	C622.435425,351.170959 626.585327,354.239471 631.129944,356.522461 
	C632.363281,357.142029 634.847900,355.520416 636.652222,354.695557 
	C639.415405,353.432312 642.086609,351.967926 644.796875,350.588898 
	C645.252991,353.568298 646.085266,356.545044 646.106079,359.527496 
	C646.278748,384.292633 646.301453,409.058777 646.083984,434.142700 
	C640.305969,430.937347 634.813354,427.414001 629.197754,423.629456 
	C628.735474,423.215668 628.396240,423.063110 628.059204,422.919464 
	C628.061401,422.928345 628.079285,422.894562 628.079285,422.894562 
z"/>
<path fill="#6290F9" opacity="1.000000" stroke="none" 
	d="
M629.320801,423.890656 
	C634.813354,427.414001 640.305969,430.937347 646.068848,434.543335 
	C648.362244,436.344696 650.467285,437.976959 652.390381,439.801086 
	C655.853699,443.086090 656.376709,447.282959 652.805054,450.237640 
	C644.514526,457.096008 635.825073,463.475616 627.222473,469.949860 
	C625.758240,471.051788 623.922424,471.659882 621.762939,472.814514 
	C616.563049,476.884186 611.983215,480.806915 607.123840,484.345734 
	C600.201843,489.386597 593.074707,494.145691 586.035156,499.025146 
	C585.508850,496.389526 584.385864,493.709839 584.576599,491.127197 
	C585.013184,485.215149 585.868530,479.306641 587.014771,473.487457 
	C587.499634,471.026093 589.012817,468.718689 590.286865,466.470673 
	C593.879639,460.131409 596.798767,453.179932 601.464600,447.740326 
	C606.752625,441.575378 609.575623,434.683624 612.114868,427.298645 
	C612.880066,425.073029 615.491882,423.539215 617.005920,421.501373 
	C619.505798,418.136719 621.334900,421.563232 623.447754,421.974152 
	C624.745605,422.226562 626.016602,422.617035 627.689453,422.920044 
	C628.079285,422.894562 628.061401,422.928345 628.198669,423.162598 
	C628.664246,423.561432 628.992493,423.726044 629.320801,423.890656 
z"/>
<path fill="#7652C8" opacity="1.000000" stroke="none" 
	d="
M424.288147,560.813721 
	C412.534515,552.405334 400.806152,543.961243 389.013031,535.608643 
	C385.083893,532.825806 381.010712,530.243286 376.963898,527.630432 
	C371.870605,524.341858 369.055573,520.076355 369.176910,513.646790 
	C369.465393,498.356415 369.289154,483.057678 369.378265,467.762726 
	C369.390350,465.686188 369.847504,463.612213 370.301422,459.860321 
	C374.841461,463.563568 378.299652,466.384369 381.977844,469.791992 
	C383.922058,473.161926 385.698090,475.914459 387.362030,478.733154 
	C397.218719,495.430237 407.284119,512.010559 416.792114,528.904358 
	C421.729675,537.677368 425.666473,547.013611 430.031006,556.067627 
	C430.006683,556.039856 430.080536,556.040894 429.764130,556.079468 
	C428.964996,556.729370 428.482300,557.340698 427.831726,558.201782 
	C426.538666,559.238953 425.413422,560.026367 424.288147,560.813721 
z"/>
<path fill="#F04167" opacity="1.000000" stroke="none" 
	d="
M424.495911,561.062134 
	C425.413422,560.026367 426.538666,559.238953 428.108704,558.107788 
	C429.062500,557.189697 429.571503,556.615295 430.080536,556.040894 
	C430.080536,556.040894 430.006683,556.039856 430.376862,556.026489 
	C442.387512,547.310425 454.028015,538.607666 465.668518,529.904907 
	C465.893555,529.929749 466.118652,529.954529 466.848145,530.303406 
	C472.630768,534.577087 477.776764,538.720642 483.218597,542.430298 
	C491.099426,547.802734 499.194275,552.861206 507.197815,558.053650 
	C506.075104,559.247986 505.111542,560.664307 503.804504,561.601501 
	C493.295715,569.136719 482.663879,576.501038 472.192932,584.087830 
	C466.901978,587.921448 461.917206,587.919312 456.661469,584.124573 
	C446.049927,576.463013 435.360840,568.908936 424.495911,561.062134 
z"/>
<path fill="#5A49B6" opacity="1.000000" stroke="none" 
	d="
M465.549011,529.617859 
	C454.028015,538.607666 442.387512,547.310425 430.401184,556.054321 
	C425.666473,547.013611 421.729675,537.677368 416.792114,528.904358 
	C407.284119,512.010559 397.218719,495.430237 387.362030,478.733154 
	C385.698090,475.914459 383.922058,473.161926 382.241089,470.001038 
	C392.416229,476.911926 402.542419,484.208588 412.681274,491.487549 
	C430.259888,504.107727 447.846344,516.716980 465.549011,529.617859 
z"/>
<path fill="#F8F8F8" opacity="1.000000" stroke="none" 
	d="
M247.625275,666.535645 
	C260.365448,667.026794 270.486664,671.426331 276.447144,682.776428 
	C285.157623,699.363281 275.704865,720.619263 257.297058,723.661194 
	C245.309937,725.642029 232.882996,724.961365 220.358246,725.485413 
	C220.358246,705.392029 220.358246,686.319458 220.358246,666.505615 
	C229.348663,666.505615 238.256973,666.505615 247.625275,666.535645 
M239.588821,714.123108 
	C243.079071,714.079712 246.591690,714.273682 250.055222,713.947083 
	C259.263428,713.078796 265.736694,706.320374 266.259918,697.324219 
	C266.775452,688.460876 261.090454,680.470581 252.186874,678.915894 
	C246.093765,677.851868 239.775223,678.078857 233.436676,677.721863 
	C233.436676,690.315063 233.436676,702.035156 233.436676,714.100586 
	C235.356949,714.100586 236.990814,714.100586 239.588821,714.123108 
z"/>
<path fill="#F8F8F8" opacity="1.000000" stroke="none" 
	d="
M663.833130,725.011230 
	C660.894409,725.011597 658.418884,725.011597 655.656982,725.011597 
	C655.656982,710.171997 655.656982,695.740051 655.656982,680.911743 
	C659.301331,680.911743 662.869263,680.911743 666.837524,680.911743 
	C666.947754,682.519836 667.052185,684.043457 667.168335,685.738525 
	C677.936768,677.750366 684.440979,677.914368 694.800476,686.029114 
	C699.000549,684.174866 702.891541,681.801086 707.113464,680.721069 
	C718.020020,677.931274 726.930664,684.744751 727.220764,695.921021 
	C727.466614,705.393982 727.271362,714.878418 727.271362,724.648560 
	C723.113037,724.648560 719.369080,724.648560 715.092590,724.648560 
	C715.092590,717.122742 715.108276,709.518738 715.087891,701.914856 
	C715.069885,695.206543 713.126526,692.196655 708.696106,691.916565 
	C703.414856,691.582703 698.354797,695.797791 698.056458,701.637268 
	C697.668274,709.235962 697.961487,716.869446 697.961487,724.754761 
	C693.676086,724.754761 690.069153,724.754761 685.851196,724.754761 
	C685.851196,717.455994 685.912598,710.167358 685.833984,702.880310 
	C685.754944,695.555725 683.088989,691.874146 677.946838,691.706177 
	C672.050598,691.513550 668.063599,695.621948 667.778625,702.783325 
	C667.533875,708.936890 667.635986,715.115723 667.875305,721.272095 
	C667.985107,724.095581 667.183289,725.379089 663.833130,725.011230 
z"/>
<path fill="#59A1EF" opacity="1.000000" stroke="none" 
	d="
M650.951904,507.789490 
	C638.837158,516.785400 626.799316,525.888000 614.559387,534.710205 
	C611.024902,537.257874 606.884216,536.788269 603.223877,534.496704 
	C598.169617,531.332520 593.245117,527.961243 588.289917,524.130005 
	C601.773132,510.639496 615.241089,497.707550 628.660339,484.725342 
	C629.313110,484.093811 629.539612,483.021606 629.964600,482.154663 
	C634.437622,479.145020 638.910645,476.135376 643.951538,473.333252 
	C645.676880,475.568634 646.850220,477.587677 647.985779,479.627777 
	C648.682739,480.880096 649.798218,482.127411 649.901001,483.441528 
	C650.271179,488.172089 650.268066,492.930908 650.450745,497.677338 
	C650.580505,501.049500 650.782227,504.418854 650.951904,507.789490 
z"/>
<path fill="#F8F8F8" opacity="1.000000" stroke="none" 
	d="
M426.033325,718.030273 
	C424.862030,713.874329 422.508118,712.629578 418.529449,712.852417 
	C412.218140,713.205872 405.863098,713.054382 399.539703,712.795105 
	C396.575226,712.673645 394.776459,713.476257 394.192444,716.465393 
	C394.129822,716.785950 393.949646,717.084229 393.818970,717.390686 
	C389.745300,726.946533 389.230408,727.214233 377.903809,725.164429 
	C379.621826,721.128174 381.260468,717.216125 382.947784,713.325134 
	C389.028534,699.302795 395.274231,685.349182 401.121399,671.230347 
	C402.758850,667.276489 404.701660,665.278564 409.136871,666.069092 
	C411.227417,666.441772 413.439453,666.132996 416.490479,666.132996 
	C425.081177,685.427002 433.894928,705.221985 442.962799,725.587646 
	C437.959351,725.587646 433.754303,725.587646 429.259857,725.587646 
	C428.253021,723.256165 427.205658,720.830811 426.033325,718.030273 
M410.468933,702.241943 
	C413.219116,702.241943 415.969269,702.241943 419.464539,702.241943 
	C416.170105,694.850098 413.195648,688.176208 409.776031,680.503418 
	C406.413544,688.252197 403.535431,694.884766 400.346313,702.234070 
	C403.949493,702.234070 406.725800,702.234070 410.468933,702.241943 
z"/>
<path fill="#F8F8F8" opacity="1.000000" stroke="none" 
	d="
M546.096008,702.949341 
	C547.323914,683.483582 563.883545,674.756714 580.750854,684.948914 
	C580.750854,678.081177 580.750854,671.554382 580.750854,664.678040 
	C585.104553,664.678040 588.840149,664.678040 592.903015,664.678040 
	C592.903015,684.630920 592.903015,704.536987 592.903015,724.438477 
	C583.996948,726.012939 582.014038,725.410217 580.559998,720.703491 
	C564.279785,733.081665 546.635437,721.256958 546.096008,702.949341 
M558.820740,704.274414 
	C559.988037,711.302307 565.311829,715.673584 571.460327,714.652527 
	C578.174255,713.537537 581.626404,708.342407 580.794800,700.605042 
	C580.125854,694.381226 575.005127,690.396484 568.529541,691.060852 
	C562.779480,691.650757 559.244873,696.124817 558.820740,704.274414 
z"/>
<path fill="#F8F8F8" opacity="1.000000" stroke="none" 
	d="
M447.237854,704.998901 
	C447.235229,691.696777 447.235229,678.894470 447.235229,665.892822 
	C451.563202,665.892822 455.630157,665.892822 459.929810,665.892822 
	C459.929810,676.742981 459.929810,687.204102 459.929810,699.071594 
	C463.177917,695.789490 465.667297,693.352295 468.070068,690.832458 
	C477.949738,680.471375 477.940033,680.462158 493.103058,681.211548 
	C488.331940,686.070435 483.995972,690.696960 479.411652,695.062744 
	C477.235962,697.134705 476.793732,698.587891 478.693512,701.300598 
	C484.015686,708.900513 488.930695,716.785522 494.328125,725.050720 
	C489.766754,725.050720 485.080688,725.224182 480.424988,724.925049 
	C479.305237,724.853149 478.003632,723.396729 477.269836,722.263550 
	C474.119080,717.398071 471.148895,712.415588 468.137939,707.516479 
	C459.580017,710.711731 458.710632,717.438904 459.968140,725.351196 
	C455.771423,725.351196 452.040070,725.351196 447.240479,725.351196 
	C447.240479,718.668701 447.240479,712.083679 447.237854,704.998901 
z"/>
<path fill="#F8F8F8" opacity="1.000000" stroke="none" 
	d="
M779.878052,688.987366 
	C773.547729,703.833801 767.661316,718.466248 761.013245,732.744141 
	C756.563599,742.300720 748.482483,745.602478 738.636169,742.555969 
	C731.102905,740.225098 729.995605,738.700195 734.635803,732.390137 
	C735.107483,731.748779 735.379822,730.960754 735.724243,730.281128 
	C736.194641,730.281128 736.602478,730.151672 736.822571,730.300293 
	C741.045776,733.151062 745.451294,734.206726 749.650574,730.604492 
	C754.155823,726.739746 751.607178,722.435547 749.765503,718.353638 
	C744.247559,706.122864 738.679382,693.914795 732.812561,680.997070 
	C736.600342,680.821228 740.030090,680.310669 743.361328,680.682312 
	C744.670776,680.828491 746.189880,682.743958 746.879150,684.200989 
	C750.896240,692.692566 754.695007,701.287415 758.976440,710.751038 
	C762.242371,702.742371 765.132690,695.628723 768.043579,688.523438 
	C771.676697,679.655212 772.640625,679.181763 782.883850,681.405518 
	C781.909851,683.841309 780.953918,686.231934 779.878052,688.987366 
z"/>
<path fill="#F8F8F8" opacity="1.000000" stroke="none" 
	d="
M319.498413,723.641235 
	C311.382935,726.774963 303.791626,726.083557 296.512421,722.318176 
	C287.724731,717.772522 283.396790,708.266663 285.343903,698.343384 
	C287.289246,688.429077 295.758728,681.117126 306.422943,680.145264 
	C316.389771,679.236938 326.148285,685.197815 329.613373,694.731567 
	C330.888336,698.239563 331.289307,702.065186 332.266571,706.563721 
	C320.542267,706.563721 309.513428,706.563721 298.212891,706.563721 
	C301.273773,714.082153 308.549072,717.095825 315.117218,714.195862 
	C316.855438,713.428406 319.055389,711.808960 320.329987,712.329041 
	C322.293884,713.130310 324.427338,715.178772 325.089386,717.164673 
	C326.499481,721.394592 322.209229,721.829163 319.498413,723.641235 
M298.094696,697.078674 
	C298.452637,697.679993 298.802490,698.800049 299.169769,698.805725 
	C305.888489,698.911011 312.609314,698.882690 320.004120,698.882690 
	C317.468353,693.489807 314.322968,690.529602 309.176636,690.093689 
	C304.133759,689.666443 300.479370,691.645142 298.094696,697.078674 
z"/>
<path fill="#F8F8F8" opacity="1.000000" stroke="none" 
	d="
M645.598389,692.558716 
	C646.722412,697.197754 647.655640,701.507568 648.763184,706.621826 
	C636.486328,706.621826 625.306519,706.621826 613.852356,706.621826 
	C618.489563,716.338867 628.514648,718.240845 636.713745,711.024414 
	C638.827209,713.450256 640.967468,715.906860 643.132080,718.391418 
	C638.693481,724.821960 627.449768,727.385010 617.384460,724.131409 
	C607.692627,720.998535 600.764954,712.009094 601.181641,703.106567 
	C601.679077,692.478149 608.622009,683.668518 618.489014,681.145752 
	C629.550049,678.317749 639.660156,682.480530 645.598389,692.558716 
M615.133728,698.998779 
	C621.942322,698.998779 628.750977,698.998779 635.910461,698.998779 
	C632.950928,691.999756 629.275940,689.641907 623.416260,690.316223 
	C618.328796,690.901733 615.189941,693.825989 615.133728,698.998779 
z"/>
<path fill="#F8F8F8" opacity="1.000000" stroke="none" 
	d="
M497.059204,716.697632 
	C494.867554,707.241028 500.301086,699.841736 509.831818,699.011597 
	C514.773254,698.581116 519.743774,698.483459 524.678528,698.236572 
	C524.488464,688.928040 516.548401,687.706543 503.437286,694.531494 
	C503.052643,694.330627 502.482819,694.213867 502.212128,693.864990 
	C497.158386,687.351868 497.463715,686.179077 505.021454,682.985840 
	C511.793671,680.124573 518.724792,678.904236 525.951233,681.096375 
	C532.819031,683.179749 536.926392,688.211487 537.056335,695.335510 
	C537.232300,704.985901 537.100098,714.641785 537.100098,724.251099 
	C529.782227,726.234863 525.771057,725.400391 524.068726,721.616882 
	C513.371704,728.847778 503.248688,727.131775 497.059204,716.697632 
M513.601990,706.946594 
	C510.814301,707.111145 508.224243,708.235229 508.914368,711.278320 
	C509.362732,713.255371 511.368683,715.647156 513.253906,716.391541 
	C519.814270,718.981812 525.632507,713.543823 524.185852,706.122375 
	C520.976379,706.364624 517.711853,706.611023 513.601990,706.946594 
z"/>
<path fill="#F8F8F8" opacity="1.000000" stroke="none" 
	d="
M355.118256,702.718262 
	C356.169098,705.532959 357.105865,707.976807 358.512451,711.646484 
	C361.004913,705.803711 363.082977,701.001465 365.101288,696.174255 
	C366.253662,693.417969 367.301453,690.618103 368.408630,687.842712 
	C371.805420,679.328064 372.871979,678.819092 383.222198,681.220581 
	C377.151611,695.262634 371.172699,709.217834 365.009125,723.091064 
	C364.558319,724.105774 362.821747,725.019287 361.596954,725.145569 
	C352.131927,726.121643 352.013306,725.994568 348.223114,717.028503 
	C343.200714,705.147339 338.187164,693.262451 332.840332,680.598877 
	C337.309570,680.598877 341.219971,680.439636 345.097504,680.725647 
	C345.929932,680.787048 346.921356,682.342896 347.366272,683.408081 
	C349.989807,689.688843 352.473419,696.028015 355.118256,702.718262 
z"/>
<path fill="#577CE0" opacity="1.000000" stroke="none" 
	d="
M629.813110,481.851135 
	C629.539612,483.021606 629.313110,484.093811 628.660339,484.725342 
	C615.241089,497.707550 601.773132,510.639496 588.103638,523.848389 
	C582.395203,520.455139 576.897949,516.794800 571.142090,512.881104 
	C574.814758,509.143219 578.742737,505.655060 582.679199,502.176544 
	C583.668457,501.302399 584.684937,500.459045 585.862061,499.313354 
	C593.074707,494.145691 600.201843,489.386597 607.123840,484.345734 
	C611.983215,480.806915 616.563049,476.884186 621.602478,473.060455 
	C624.512024,475.841217 627.086792,478.694427 629.813110,481.851135 
z"/>
<path fill="#C5393A" opacity="1.000000" stroke="none" 
	d="
M507.551422,558.085388 
	C499.194275,552.861206 491.099426,547.802734 483.218597,542.430298 
	C477.776764,538.720642 472.630768,534.577087 467.185669,530.341492 
	C470.556976,527.470215 474.095184,524.884888 477.919800,522.082764 
	C485.875519,526.904358 493.544769,531.942688 501.551880,537.055542 
	C501.889679,537.130127 501.927612,537.105408 502.056152,537.374756 
	C503.104645,538.132446 504.024597,538.620728 504.944550,539.109070 
	C504.944550,539.109070 504.985077,539.034363 505.094421,539.332397 
	C506.135925,540.092041 507.068085,540.553589 508.000214,541.015137 
	C508.000214,541.015137 508.000519,540.995728 508.141968,541.281738 
	C509.542206,542.267273 510.800995,542.966919 512.059753,543.666504 
	C512.059753,543.666504 512.333801,543.977051 512.720459,544.295410 
	C513.718445,544.810974 514.329895,545.008057 514.941284,545.205139 
	C514.941284,545.205139 514.955627,545.082153 514.972778,545.356750 
	C515.325012,545.791016 515.659973,545.950745 515.994995,546.110413 
	C517.039001,547.001160 518.083008,547.891907 519.321655,549.085144 
	C515.645813,552.297485 511.775421,555.207275 507.551422,558.085388 
z"/>
<path fill="#FDFDFE" opacity="1.000000" stroke="none" 
	d="
M419.715393,349.507660 
	C407.605316,352.871216 401.351166,348.646851 398.053894,335.171448 
	C400.853943,323.703552 404.001953,321.036438 416.119324,319.506714 
	C419.202820,322.181519 421.980286,324.946075 424.734100,327.733978 
	C429.593353,332.653351 429.392578,342.926727 422.778625,347.185028 
	C421.802673,347.813416 420.907776,348.567749 419.715393,349.507660 
z"/>
<path fill="#FDFDFE" opacity="1.000000" stroke="none" 
	d="
M477.336121,343.266632 
	C475.457916,340.119476 473.331268,337.035736 472.545074,333.641510 
	C470.676666,325.575317 477.348846,314.940186 486.626709,315.870453 
	C492.900238,316.999756 496.796112,320.704895 499.980652,325.884430 
	C500.204803,329.002411 500.707306,332.103363 499.942383,334.851593 
	C497.005371,345.403687 488.467957,348.479095 477.336121,343.266632 
z"/>
<path fill="#577CE0" opacity="1.000000" stroke="none" 
	d="
M369.557251,412.494598 
	C371.627167,411.300934 373.790161,410.822601 375.467010,409.649384 
	C385.382568,402.712097 395.268433,395.725372 404.978180,388.505005 
	C408.137207,386.155884 409.340210,389.425690 411.773132,390.154083 
	C398.714355,399.814087 385.354279,409.305145 371.980042,418.776245 
	C371.466064,419.140198 370.815918,419.311920 369.425751,419.931122 
	C369.425751,417.282654 369.425751,415.085754 369.557251,412.494598 
z"/>
<path fill="#577CE0" opacity="1.000000" stroke="none" 
	d="
M651.271484,507.672119 
	C650.782227,504.418854 650.580505,501.049500 650.450745,497.677338 
	C650.268066,492.930908 650.271179,488.172089 649.901001,483.441528 
	C649.798218,482.127411 648.682739,480.880096 647.985779,479.627777 
	C646.850220,477.587677 645.676880,475.568634 644.293945,473.259155 
	C647.208740,470.964142 650.348999,468.950745 654.302551,466.415894 
	C654.558411,468.951447 654.830566,470.507629 654.853455,472.067444 
	C654.972290,480.189117 655.397400,488.332581 654.941223,496.424774 
	C654.729248,500.185760 652.762390,503.847870 651.271484,507.672119 
z"/>
<path fill="#4DD4C6" opacity="1.000000" stroke="none" 
	d="
M435.259766,373.005951 
	C435.431152,372.657776 435.900726,372.356354 436.654053,372.011017 
	C436.477844,372.328949 436.017883,372.690826 435.259766,373.005951 
z"/>
<path fill="#4DD4C6" opacity="1.000000" stroke="none" 
	d="
M438.331543,371.019592 
	C438.330200,370.824585 438.636902,370.539886 439.247925,370.153198 
	C439.248016,370.344086 438.943787,370.636963 438.331543,371.019592 
z"/>
<path fill="#577CE0" opacity="1.000000" stroke="none" 
	d="
M369.883423,359.397156 
	C369.966217,359.406921 369.984772,359.565735 369.952148,359.633667 
	C369.919525,359.701630 369.800629,359.387421 369.883423,359.397156 
z"/>
<path fill="#A59FF1" opacity="1.000000" stroke="none" 
	d="
M512.023987,543.313354 
	C510.800995,542.966919 509.542206,542.267273 508.132721,541.285156 
	C509.317413,541.655212 510.652832,542.307739 512.023987,543.313354 
z"/>
<path fill="#A59FF1" opacity="1.000000" stroke="none" 
	d="
M504.899109,538.755615 
	C504.024597,538.620728 503.104645,538.132446 502.041565,537.358337 
	C502.883545,537.515808 503.868591,537.958984 504.899109,538.755615 
z"/>
<path fill="#A59FF1" opacity="1.000000" stroke="none" 
	d="
M507.936157,540.670288 
	C507.068085,540.553589 506.135925,540.092041 505.055054,539.348389 
	C505.894928,539.485962 506.883545,539.905701 507.936157,540.670288 
z"/>
<path fill="#A59FF1" opacity="1.000000" stroke="none" 
	d="
M514.769226,544.918884 
	C514.329895,545.008057 513.718445,544.810974 512.923218,544.337524 
	C513.358643,544.251709 513.977905,544.442200 514.769226,544.918884 
z"/>
<path fill="#A59FF1" opacity="1.000000" stroke="none" 
	d="
M515.866943,545.872803 
	C515.659973,545.950745 515.325012,545.791016 514.910889,545.356018 
	C515.134155,545.265564 515.436584,545.450439 515.866943,545.872803 
z"/>
<path fill="#7AA2F8" opacity="1.000000" stroke="none" 
	d="
M629.197754,423.629456 
	C628.992493,423.726044 628.664246,423.561432 628.196472,423.153687 
	C628.396240,423.063110 628.735474,423.215668 629.197754,423.629456 
z"/>
<path fill="#5A49B6" opacity="1.000000" stroke="none" 
	d="
M429.764130,556.079468 
	C429.571503,556.615295 429.062500,557.189697 428.276550,557.858032 
	C428.482300,557.340698 428.964996,556.729370 429.764130,556.079468 
z"/>
<path fill="#201F2C" opacity="1.000000" stroke="none" 
	d="
M239.106750,714.111816 
	C236.990814,714.100586 235.356949,714.100586 233.436676,714.100586 
	C233.436676,702.035156 233.436676,690.315063 233.436676,677.721863 
	C239.775223,678.078857 246.093765,677.851868 252.186874,678.915894 
	C261.090454,680.470581 266.775452,688.460876 266.259918,697.324219 
	C265.736694,706.320374 259.263428,713.078796 250.055222,713.947083 
	C246.591690,714.273682 243.079071,714.079712 239.106750,714.111816 
z"/>
<path fill="#201F2C" opacity="1.000000" stroke="none" 
	d="
M409.985535,702.238037 
	C406.725800,702.234070 403.949493,702.234070 400.346313,702.234070 
	C403.535431,694.884766 406.413544,688.252197 409.776031,680.503418 
	C413.195648,688.176208 416.170105,694.850098 419.464539,702.241943 
	C415.969269,702.241943 413.219116,702.241943 409.985535,702.238037 
z"/>
<path fill="#201F2C" opacity="1.000000" stroke="none" 
	d="
M558.793213,703.847107 
	C559.244873,696.124817 562.779480,691.650757 568.529541,691.060852 
	C575.005127,690.396484 580.125854,694.381226 580.794800,700.605042 
	C581.626404,708.342407 578.174255,713.537537 571.460327,714.652527 
	C565.311829,715.673584 559.988037,711.302307 558.793213,703.847107 
z"/>
<path fill="#201F2C" opacity="1.000000" stroke="none" 
	d="
M298.232880,696.695923 
	C300.479370,691.645142 304.133759,689.666443 309.176636,690.093689 
	C314.322968,690.529602 317.468353,693.489807 320.004120,698.882690 
	C312.609314,698.882690 305.888489,698.911011 299.169769,698.805725 
	C298.802490,698.800049 298.452637,697.679993 298.232880,696.695923 
z"/>
<path fill="#201F2C" opacity="1.000000" stroke="none" 
	d="
M614.714905,698.905640 
	C615.189941,693.825989 618.328796,690.901733 623.416260,690.316223 
	C629.275940,689.641907 632.950928,691.999756 635.910461,698.998779 
	C628.750977,698.998779 621.942322,698.998779 614.714905,698.905640 
z"/>
<path fill="#201F2C" opacity="1.000000" stroke="none" 
	d="
M514.024658,706.901978 
	C517.711853,706.611023 520.976379,706.364624 524.185852,706.122375 
	C525.632507,713.543823 519.814270,718.981812 513.253906,716.391541 
	C511.368683,715.647156 509.362732,713.255371 508.914368,711.278320 
	C508.224243,708.235229 510.814301,707.111145 514.024658,706.901978 
z"/>
</svg>